HIERARCHY
ROOT Hips
{
	OFFSET 0.000000 0.000000 0.000000
	CHANNELS 6 Xposition Yposition Zposition Xrotation Yrotation Zrotation
	JOINT LeftUpLeg_virtual
	{
		OFFSET 0.000000 0.000000 0.000000
		CHANNELS 3 Xrotation Yrotation Zrotation
		JOINT LeftUpLeg
		{
			OFFSET 11.394100 -6.187798 -0.413800
			CHANNELS 3 Xrotation Yrotation Zrotation
			JOINT LeftLeg
			{
				OFFSET 0.430247 -32.302673 3.732800
				CHANNELS 3 Xrotation Yrotation Zrotation
				JOINT LeftFoot
				{
					OFFSET -0.430247 -48.264931 -6.423300
					CHANNELS 3 Xrotation Yrotation Zrotation
					JOINT LeftToeBase
					{
						OFFSET 4.230900 -16.068199 23.438400
						CHANNELS 3 Xrotation Yrotation Zrotation
						JOINT LeftToe_End
						{
							OFFSET 4.510700 0.695400 19.974600
							CHANNELS 3 Xrotation Yrotation Zrotation
							End Site
							{
								OFFSET 0 0 0
							}
						}
					}
				}
			}
		}
	}
	JOINT RightUpLeg_virtual
	{
		OFFSET 0.000000 0.000000 0.000000
		CHANNELS 3 Xrotation Yrotation Zrotation
		JOINT RightUpLeg
		{
			OFFSET -11.333700 -6.187798 -0.413800
			CHANNELS 3 Xrotation Yrotation Zrotation
			JOINT RightLeg
			{
				OFFSET -0.430392 -32.302628 3.733000
				CHANNELS 3 Xrotation Yrotation Zrotation
				JOINT RightFoot
				{
					OFFSET 0.430392 -48.264973 -6.423500
					CHANNELS 3 Xrotation Yrotation Zrotation
					JOINT RightToeBase
					{
						OFFSET -4.230900 -16.068199 23.438400
						CHANNELS 3 Xrotation Yrotation Zrotation
						JOINT RightToe_End
						{
							OFFSET -4.510700 0.695400 19.974600
							CHANNELS 3 Xrotation Yrotation Zrotation
							End Site
							{
								OFFSET 0 0 0
							}
						}
					}
				}
			}
		}
	}
	JOINT Spine_virtual
	{
		OFFSET 0.000000 0.000000 0.000000
		CHANNELS 3 Xrotation Yrotation Zrotation
		JOINT Spine
		{
			OFFSET -0.002400 12.777504 0.315300
			CHANNELS 3 Xrotation Yrotation Zrotation
			JOINT Spine1
			{
				OFFSET -0.002067 5.816869 0.032633
				CHANNELS 3 Xrotation Yrotation Zrotation
				JOINT Spine1_split
				{
					OFFSET -0.002067 5.816869 0.032633
					CHANNELS 3 Xrotation Yrotation Zrotation
					JOINT Spine2
					{
						OFFSET -0.002067 5.816869 0.032633
						CHANNELS 3 Xrotation Yrotation Zrotation
						JOINT Neck_virtual
						{
							OFFSET 0.000000 0.000000 0.000000
							CHANNELS 3 Xrotation Yrotation Zrotation
							JOINT Neck
							{
								OFFSET -0.003700 21.199493 -0.826900
								CHANNELS 3 Xrotation Yrotation Zrotation
								JOINT Head
								{
									OFFSET 0.000000 20.442200 4.834800
									CHANNELS 3 Xrotation Yrotation Zrotation
									JOINT HeadTop_End
									{
										OFFSET 0.000000 34.668396 4.968400
										CHANNELS 3 Xrotation Yrotation Zrotation
										End Site
										{
											OFFSET 0 0 0
										}
									}
								}
							}
						}
						JOINT LeftShoulder_virtual
						{
							OFFSET 0.000000 0.000000 0.000000
							CHANNELS 3 Xrotation Yrotation Zrotation
							JOINT LeftShoulder
							{
								OFFSET 3.288150 8.794197 -1.372250
								CHANNELS 3 Xrotation Yrotation Zrotation
								JOINT LeftShoulder_split
								{
									OFFSET 3.288150 8.794197 -1.372250
									CHANNELS 3 Xrotation Yrotation Zrotation
									JOINT LeftArm
									{
										OFFSET 11.953299 -2.279007 -0.146200
										CHANNELS 3 Xrotation Yrotation Zrotation
										JOINT LeftForeArm
										{
											OFFSET 18.448900 0.000000 0.000000
											CHANNELS 3 Xrotation Yrotation Zrotation
											JOINT LeftHand
											{
												OFFSET 29.527798 0.000000 0.000000
												CHANNELS 3 Xrotation Yrotation Zrotation
												End Site
												{
													OFFSET 0 0 0
												}
											}
										}
									}
								}
							}
						}
						JOINT RightShoulder_virtual
						{
							OFFSET 0.000000 0.000000 0.000000
							CHANNELS 3 Xrotation Yrotation Zrotation
							JOINT RightShoulder
							{
								OFFSET -3.249400 8.794197 -1.372250
								CHANNELS 3 Xrotation Yrotation Zrotation
								JOINT RightShoulder_split
								{
									OFFSET -3.249400 8.794197 -1.372250
									CHANNELS 3 Xrotation Yrotation Zrotation
									JOINT RightArm
									{
										OFFSET -11.953299 -2.279007 -0.146200
										CHANNELS 3 Xrotation Yrotation Zrotation
										JOINT RightForeArm
										{
											OFFSET -18.448900 0.000000 0.000000
											CHANNELS 3 Xrotation Yrotation Zrotation
											JOINT RightHand
											{
												OFFSET -29.527802 0.000000 0.000000
												CHANNELS 3 Xrotation Yrotation Zrotation
												End Site
												{
													OFFSET 0 0 0
												}
											}
										}
									}
								}
							}
						}
					}
				}
			}
		}
	}
}
MOTION
Frames: 5
Frame Time: 0.03333333
5.791348 49.423279 -0.724194 0.000000 0.000000 0.000000 2.897061 -28.417892 8.955113 -92.207267 -17.174681 45.107502 67.542183 14.709337 -5.726437 46.274685 -3.160055 -3.306759 -1.881981 1.025126 -1.373030 0.000000 0.000000 0.000000 -0.880807 -25.387149 8.644567 -12.380803 -3.209336 -17.112339 105.713816 8.518353 -3.377792 28.263944 7.705696 21.969635 43.850996 -0.156117 -9.631794 0.000000 0.000000 0.000000 0.753473 -30.576670 8.676030 1.382373 0.407096 -6.005804 1.742178 -1.220547 -3.360950 1.138706 1.436797 -0.270369 0.000000 0.000000 0.000000 2.128476 -1.468242 -2.967491 -4.187408 0.983033 4.293226 2.755037 20.591297 3.207559 0.000000 0.000000 0.000000 1.567083 -0.908221 -3.028172 0.439171 4.708542 2.674011 -3.445848 -0.169377 -0.405780 0.619077 -14.217447 -54.870724 -20.318505 -88.873950 -19.625329 0.000000 0.000000 0.000000 2.722507 -1.345612 -3.490384 4.495921 16.503651 8.533040 -1.695670 3.279544 0.495768 10.881517 21.823247 34.928840 179.192540 53.013691 -179.051592 0.000000 0.000000 0.000000 
5.777020 49.437393 -0.741665 0.000000 0.000000 0.000000 2.908804 -28.380640 8.957244 -92.172645 -17.181536 45.110415 67.547566 14.729171 -5.740632 46.291641 -3.137281 -3.307064 -1.879259 1.025830 -1.388338 0.000000 0.000000 0.000000 -0.865837 -25.345080 8.646571 -12.403703 -3.186930 -17.114910 105.719546 8.510329 -3.379136 28.248805 7.696021 21.975843 43.872395 -0.156728 -9.635101 0.000000 0.000000 0.000000 0.771045 -30.547915 8.682289 1.387930 0.402657 -6.016420 1.749769 -1.230360 -3.370639 1.172636 1.397307 -0.266360 0.000000 0.000000 0.000000 2.137980 -1.476071 -2.974350 -4.186125 0.984395 4.297049 2.766017 20.605088 3.192791 0.000000 0.000000 0.000000 1.570063 -0.917193 -3.032613 0.427898 4.719493 2.675645 -3.441111 -0.215159 -0.379281 0.603503 -14.217255 -54.840193 -22.132408 -88.917725 -21.428767 0.000000 0.000000 0.000000 2.725199 -1.357153 -3.494142 4.502799 16.488603 8.523493 -1.699240 3.254495 0.484926 10.837994 21.770367 34.913892 179.207047 52.999761 -179.061264 0.000000 0.000000 0.000000 
5.756512 49.458839 -0.766808 0.000000 0.000000 0.000000 2.931332 -28.330692 8.966947 -92.103803 -17.203737 45.106515 67.518974 14.760969 -5.766445 46.313716 -3.113174 -3.317362 -1.887975 1.024728 -1.412434 0.000000 0.000000 0.000000 -0.838436 -25.290483 8.657944 -12.453418 -3.169506 -17.122330 105.726151 8.490504 -3.372395 28.246683 7.668620 21.962490 43.907239 -0.151235 -9.635957 0.000000 0.000000 0.000000 0.802414 -30.506336 8.700049 1.405404 0.388791 -6.035660 1.761473 -1.239177 -3.385078 1.190563 1.391423 -0.246854 0.000000 0.000000 0.000000 2.151233 -1.481329 -2.988617 -4.166546 0.983387 4.319083 2.757906 20.617339 3.197721 0.000000 0.000000 0.000000 1.576252 -0.924017 -3.043603 0.422442 4.735889 2.677036 -3.406721 -0.263986 -0.377994 0.531207 -14.160954 -54.791760 -26.349207 -89.045709 -25.624522 0.000000 0.000000 0.000000 2.734016 -1.366796 -3.504659 4.506149 16.486733 8.528570 -1.691821 3.257012 0.497606 10.774757 21.642919 34.891352 179.229150 52.977065 -179.080757 0.000000 0.000000 0.000000 
5.735068 49.482124 -0.797733 0.000000 0.000000 0.000000 2.960415 -28.284995 8.983339 -92.010701 -17.236056 45.099599 67.460754 14.801708 -5.804474 46.331014 -3.092966 -3.340732 -1.914893 1.021340 -1.435387 0.000000 0.000000 0.000000 -0.809282 -25.238678 8.677828 -12.526331 -3.159197 -17.132899 105.738596 8.465623 -3.364066 28.270368 7.637128 21.945843 43.938682 -0.140384 -9.636014 0.000000 0.000000 0.000000 0.839926 -30.468600 8.727773 1.428078 0.369181 -6.060779 1.773305 -1.245807 -3.402249 1.173460 1.406413 -0.230950 0.000000 0.000000 0.000000 2.165488 -1.483066 -3.008242 -4.129854 0.983926 4.349311 2.726963 20.628510 3.212016 0.000000 0.000000 0.000000 1.582670 -0.927680 -3.058788 0.422797 4.757803 2.665821 -3.356435 -0.315490 -0.409190 0.431685 -14.056020 -54.734144 -34.190841 -89.225698 -33.437990 0.000000 0.000000 0.000000 2.744954 -1.372246 -3.519889 4.507188 16.494835 8.538085 -1.682367 3.291577 0.519801 10.700915 21.496128 34.855729 179.247059 52.971672 -179.099595 0.000000 0.000000 0.000000 
5.714431 49.502369 -0.823544 0.000000 0.000000 0.000000 2.989201 -28.251836 9.005304 -91.899751 -17.275165 45.094593 67.386790 14.845090 -5.852883 46.342065 -3.085301 -3.384064 -1.957168 1.015937 -1.449376 0.000000 0.000000 0.000000 -0.782015 -25.204605 8.704493 -12.609906 -3.153324 -17.141577 105.751081 8.443553 -3.361990 28.314805 7.618405 21.945797 43.944242 -0.126511 -9.639537 0.000000 0.000000 0.000000 0.869359 -30.443536 8.759435 1.453906 0.346784 -6.088699 1.782803 -1.249335 -3.418745 1.157956 1.424561 -0.229563 0.000000 0.000000 0.000000 2.177083 -1.482938 -3.027964 -4.077680 0.991946 4.370376 2.673647 20.646188 3.220003 0.000000 0.000000 0.000000 1.587196 -0.929251 -3.073550 0.428553 4.783554 2.627498 -3.304280 -0.364543 -0.465108 0.339617 -13.923078 -54.669906 -47.504044 -89.404881 -46.722145 0.000000 0.000000 0.000000 2.754020 -1.374071 -3.535858 4.508023 16.509532 8.543353 -1.672361 3.344001 0.542977 10.623168 21.384100 34.808406 179.248793 52.995964 -179.104581 0.000000 0.000000 0.000000 
